HIERARCHY
ROOT ui
{
	 OFFSET 0 0 0
	 CHANNELS 3 XPosition YPosition Z Position
	 EndSite
	 {
	 OFFSET 0 -1 0
	 }
}
ROOT li
{
	 OFFSET 0 0 0
	 CHANNELS 3 XPosition YPosition Z Position
	 EndSite
	 {
	 OFFSET 0 -1 0
	 }
}
ROOT ul
{
	 OFFSET 0 0 0
	 CHANNELS 3 XPosition YPosition Z Position
	 EndSite
	 {
	 OFFSET 0 -1 0
	 }
}
ROOT ll
{
	 OFFSET 0 0 0
	 CHANNELS 3 XPosition YPosition Z Position
	 EndSite
	 {
	 OFFSET 0 -1 0
	 }
}
ROOT tt
{
	 OFFSET 0 0 0
	 CHANNELS 3 XPosition YPosition Z Position
	 EndSite
	 {
	 OFFSET 0 -1 0
	 }
}
ROOT tb
{
	 OFFSET 0 0 0
	 CHANNELS 3 XPosition YPosition Z Position
	 EndSite
	 {
	 OFFSET 0 -1 0
	 }
}
ROOT td
{
	 OFFSET 0 0 0
	 CHANNELS 3 XPosition YPosition Z Position
	 EndSite
	 {
	 OFFSET 0 -1 0
	 }
}
ROOT v
{
	 OFFSET 0 0 0
	 CHANNELS 3 XPosition YPosition Z Position
	 EndSite
	 {
	 OFFSET 0 -1 0
	 }
}
ROOT bn
{
	 OFFSET 0 0 0
	 CHANNELS 3 XPosition YPosition Z Position
	 EndSite
	 {
	 OFFSET 0 -1 0
	 }
}
MOTION
Frames: 27
Frame Time: 0.002
-4.936299920082092E-4	-6.453199684619903E-5	0		0.41123568725585935	-2.310393310546875	0		-1.158240234375	-0.02784682083129883	0		-0.8442066040039062	-2.26928759765625	0		1.133429443359375	-0.5359287719726562	0		2.686775634765625	0.09237062835693359	0		4.39188232421875	0.13364889526367188	0		5.53632861328125	0.1232750015258789	0		-0.34931216430664064	5.8997177734375	0		
-0.07146244049072266	0.003228837013244629	0		0.39200421142578123	-2.304941162109375	0		-1.1461209716796874	-0.021468400955200195	0		-0.8025556640625	-2.270362060546875	0		1.1437005615234375	-0.528828369140625	0		2.69287890625	0.10101021575927735	0		4.3999345703125	0.14076011657714843	0		5.54215380859375	0.137838134765625	0		-0.4804666442871094	5.8810068359375	0		
0.007380139827728271	-3.009060025215149E-4	0		0.4225149230957031	-2.307426513671875	0		-1.146294921875	-0.025834688186645506	0		-0.8329697875976563	-2.26805419921875	0		1.147745361328125	-0.5286153564453125	0		2.67959765625	0.09398371887207031	0		4.40863818359375	0.13381204223632812	0		5.540833984375	0.1595448455810547	0		-0.3448858947753906	5.89927685546875	0		
-0.06380928039550782	0.0029737150669097902	0		0.41601263427734375	-2.3012138671875	0		-1.1465809326171874	-0.02917365837097168	0		-0.7597345581054687	-2.276646484375	0		1.145522216796875	-0.5352959594726563	0		2.733398193359375	0.09768885803222656	0		4.39342138671875	0.1382508544921875	0		5.54473974609375	0.13071034240722657	0		-0.34174008178710935	5.8980625	0		
0.011677835464477539	-0.003433584928512573	0		0.4290223388671875	-2.310359130859375	0		-1.1789775390625	-0.028903196334838867	0		-0.8285006103515625	-2.272609130859375	0		1.1492481689453125	-0.535094970703125	0		2.6868994140625	0.09519768524169922	0		4.39697607421875	0.13927592468261718	0		5.546138671875	0.16413700866699218	0		-0.34062832641601565	5.89890380859375	0		
-0.03185570907592773	0.00133200204372406	0		0.3810677795410156	-2.303406494140625	0		-1.175583984375	-0.029255975723266603	0		-0.7876031494140625	-2.27453955078125	0		1.1527606201171876	-0.5349002685546875	0		2.70526123046875	0.09548624420166016	0		4.400330078125	0.14023440551757813	0		5.5421630859375	0.16649490356445312	0		-0.4710004577636719	5.87910791015625	0		
-0.02869952392578125	0.001265184998512268	0		0.41475103759765625	-2.30191357421875	0		-1.1854014892578124	-0.028340045928955077	0		-0.8127758178710938	-2.26425927734375	0		1.1652249755859374	-0.523872314453125	0		2.72634130859375	0.09269203186035156	0		4.40142138671875	0.13915786743164063	0		5.55791357421875	0.15745588684082032	0		-0.46716357421875	5.87591162109375	0		
-0.018674179077148436	0.0080932674407959	0		0.4420142822265625	-2.30729345703125	0		-1.12134375	-0.02067995262145996	0		-0.7426136474609375	-2.275628173828125	0		1.162110595703125	-0.5305822143554687	0		2.7104921875	0.10851039123535157	0		4.42041845703125	0.14669415283203124	0		5.55169921875	0.19417941284179688	0		-0.33400787353515626	5.89748876953125	0		
-0.023158300399780275	0.0011860640048980712	0		0.40821746826171873	-2.297604248046875	0		-1.166868408203125	-0.030072484970092773	0		-0.8125142211914063	-2.2715244140625	0		1.1617723388671874	-0.5343515625	0		2.6948193359375	0.09227386474609375	0		4.4189267578125	0.14151455688476564	0		5.5548515625	0.17151176452636718	0		-0.33240643310546875	5.897404296875	0		
-0.020798574447631835	0.0011735670566558837	0		0.43688211059570314	-2.30099365234375	0		-1.128509033203125	-0.0308800106048584	0		-0.776888916015625	-2.277224365234375	0		1.1611650390625	-0.537126708984375	0		2.71316259765625	0.09241332244873048	0		4.41128271484375	0.14336872863769531	0		5.551353515625	0.14377349853515625	0		-0.33097015380859374	5.89734326171875	0		
-0.046766799926757814	-0.001346701979637146	0		0.396234375	-2.303196044921875	0		-1.19534814453125	-0.025858686447143554	0		-0.8074055786132812	-2.271765625	0		1.1663685302734375	-0.5340104370117188	0		2.720109130859375	0.08571166229248046	0		4.4251025390625	0.12978408813476563	0		5.55925927734375	0.14309326171875	0		-0.4630440368652344	5.878564453125	0		
-0.01691935348510742	0.001197042942047119	0		0.4522548217773438	-2.307035888671875	0		-1.1165047607421874	-0.024279176712036134	0		-0.8012470092773437	-2.266909423828125	0		1.1713006591796875	-0.529899169921875	0		2.726320068359375	0.11099058532714844	0		4.42920751953125	0.14930332946777344	0		5.56225	0.18226521301269533	0		-0.3276347961425781	5.89626953125	0		
-0.04036586380004883	0.00264860200881958	0		0.4192174072265625	-2.29536962890625	0		-1.151963623046875	-0.0237409725189209	0		-0.8015276489257812	-2.269924072265625	0		1.1698226318359375	-0.533691650390625	0		2.7275068359375	0.09131195831298829	0		4.43072509765625	0.1497991180419922	0		5.5646015625	0.15730357360839844	0		-0.326715087890625	5.89627001953125	0		
0.035873767852783206	-5.574529767036438E-4	0		0.45346630859375	-2.309833740234375	0		-1.0498251953125	-0.033477638244628904	0		-0.767131103515625	-2.27549755859375	0		1.1711534423828125	-0.5335416259765625	0		2.757961669921875	0.102115234375	0		4.4227802734375	0.137389404296875	0		5.5613798828125	0.17742007446289063	0		-0.32693646240234375	5.89730419921875	0		
-0.03802740097045899	0.0027450120449066164	0		0.41989553833007814	-2.2971650390625	0		-1.120740966796875	-0.03130473327636719	0		-0.7679411010742188	-2.277464111328125	0		1.19017919921875	-0.537697021484375	0		2.720865478515625	0.09400608062744141	0		4.425841796875	0.13873814392089845	0		5.55990625	0.16446046447753906	0		-0.32631539916992186	5.89733642578125	0		
0.03472978973388672	-0.003382164001464844	0		0.4556783447265625	-2.30965283203125	0		-1.1499677734375	-0.035810588836669925	0		-0.7998692626953126	-2.27190087890625	0		1.17312939453125	-0.5332655029296876	0		2.724791748046875	0.09918111419677735	0		4.4246669921875	0.1380976104736328	0		5.56170947265625	0.13047775268554687	0		-0.45817694091796873	5.8765654296875	0		
-0.019562475204467772	-4.0474000573158264E-4	0		0.4086214599609375	-2.298772705078125	0		-1.1312191162109375	-0.031090213775634767	0		-0.747172119140625	-2.2767236328125	0		1.179935302734375	-0.5262423706054687	0		2.73932080078125	0.09114479064941407	0		4.42842626953125	0.14431768798828126	0		5.5774150390625	0.16675262451171874	0		-0.4558093566894531	5.87458154296875	0		
0.03895267868041992	-2.858479917049408E-4	0		0.45021337890625	-2.2983603515625	0		-1.11059912109375	-0.02438318634033203	0		-0.7594913940429687	-2.27046142578125	0		1.174344482421875	-0.5330309448242188	0		2.7251552734375	0.11155107116699219	0		4.43504248046875	0.15143507385253907	0		5.56427685546875	0.17464651489257813	0		-0.323149169921875	5.894466796875	0		
-0.03563802337646484	0.0030221850872039794	0		0.4226479797363281	-2.296815673828125	0		-1.150276123046875	-0.02667341423034668	0		-0.7271968994140625	-2.27792626953125	0		1.171673095703125	-0.535881103515625	0		2.707242431640625	0.09498161315917969	0		4.4313076171875	0.14566993713378906	0		5.55744384765625	0.1804482879638672	0		-0.3238731689453125	5.8965517578125	0		
0.04634972381591797	-0.013246153831481934	0		0.45568380737304687	-2.31127490234375	0		-1.118100830078125	-0.031134647369384767	0		-0.799867919921875	-2.273660400390625	0		1.171924072265625	-0.5357923583984375	0		2.72656591796875	0.09977455902099609	0		4.43155126953125	0.14579421997070313	0		5.56525390625	0.14923429870605467	0		-0.3236923522949219	5.8966240234375	0		
-0.03525145721435547	0.003173135995864868	0		0.43191534423828126	-2.30580517578125	0		-1.1079932861328126	-0.03322537994384766	0		-0.7627431640625	-2.27519384765625	0		1.175115478515625	-0.5327642211914062	0		2.744508056640625	0.08756167602539063	0		4.4316923828125	0.14587860107421874	0		5.56188232421875	0.163364013671875	0		-0.45592245483398436	5.87586865234375	0		
0.03976034164428711	1.6793999820947645E-5	0		0.43398934936523437	-2.303766357421875	0		-1.142720703125	-0.01957155990600586	0		-0.7935660400390625	-2.26660693359375	0		1.1751671142578124	-0.5326964111328125	0		2.721878173828125	0.10699549102783203	0		4.435845703125	0.1518611602783203	0		5.57126220703125	0.17344801330566406	0		-0.3225070495605469	5.89475927734375	0		
-0.03521310806274414	0.003322279930114746	0		0.45990802001953124	-2.306124755859375	0		-1.1138726806640624	-0.02795886993408203	0		-0.7247512817382813	-2.27565576171875	0		1.1751441650390626	-0.5326370239257813	0		2.732631591796875	0.09285688781738281	0		4.43660107421875	0.1378656463623047	0		5.567099609375	0.19265675354003906	0		-0.32341748046875	5.89685302734375	0		
0.03967131805419922	1.629060059785843E-4	0		0.44889422607421875	-2.29987939453125	0		-1.11394580078125	-0.027865505218505858	0		-0.7978054809570313	-2.271369140625	0		1.1720130615234374	-0.5355349731445312	0		2.746756103515625	0.10464929962158204	0		4.43166357421875	0.14594053649902344	0		5.56826123046875	0.16142132568359374	0		-0.3224172668457031	5.894916015625	0		
-0.03846528625488281	-4.805090129375458E-4	0		0.4555453186035156	-2.310930908203125	0		-1.1181094970703125	-0.030701332092285157	0		-0.7290962524414063	-2.2794140625	0		1.1718865966796874	-0.5354893188476563	0		2.723482666015625	0.09503923034667969	0		4.44255078125	0.14573060607910157	0		5.56402734375	0.18052919006347656	0		-0.3233638305664063	5.89701220703125	0		
0.049265304565429685	-0.008859267234802246	0		0.43142584228515624	-2.30547705078125	0		-1.1831114501953126	-0.02152824020385742	0		-0.7961430053710937	-2.26921875	0		1.174779052734375	-0.5325001831054688	0		2.726425537109375	0.09998558807373047	0		4.43628173828125	0.13778013610839843	0		5.57223388671875	0.14372601318359374	0		-0.45570574951171877	5.8762734375	0		
0.042323196411132816	0.004322996139526367	0		0.46325680541992187	-2.301950439453125	0		-1.0944141845703126	-0.03089094924926758	0		-0.7573449096679687	-2.2677685546875	0		1.1884703369140626	-0.5406978759765625	0		2.759200439453125	0.09542403411865234	0		4.4292451171875	0.14482406616210938	0		5.5779873046875	0.16753465270996093	0		-0.32038140869140624	5.89312353515625	0		
